<svg width="23" height="19" viewBox="0 0 23 19" fill="none" xmlns="http://www.w3.org/2000/svg">
<path fill-rule="evenodd" clip-rule="evenodd" d="M5.99121 1.13629C9.65634 0.808588 13.3434 0.808588 17.0085 1.13629L18.5891 1.27761C20.1645 1.41847 21.4374 2.62199 21.6662 4.18702C22.1813 7.71028 22.1813 11.2897 21.6662 14.813C21.4374 16.378 20.1645 17.5815 18.5891 17.7224L17.0085 17.8637C13.3434 18.1914 9.65634 18.1914 5.99121 17.8637L4.41064 17.7224C2.83526 17.5815 1.56239 16.378 1.33359 14.813C0.818492 11.2897 0.818491 7.71028 1.33359 4.18702C1.56239 2.62199 2.83526 1.41847 4.41064 1.27761L5.99121 1.13629ZM5.09942 4.12463C4.85731 3.99426 4.56449 4.00078 4.32841 4.14178C4.09234 4.28279 3.94778 4.53752 3.94778 4.8125V14.7083C3.94778 15.1398 4.29756 15.4896 4.72903 15.4896C5.1605 15.4896 5.51028 15.1398 5.51028 14.7083V6.12048L11.1295 9.1462C11.3607 9.27071 11.639 9.27071 11.8703 9.1462L17.4894 6.12048V14.7083C17.4894 15.1398 17.8392 15.4896 18.2707 15.4896C18.7022 15.4896 19.0519 15.1398 19.0519 14.7083V4.8125C19.0519 4.53752 18.9074 4.28279 18.6713 4.14178C18.4352 4.00078 18.1424 3.99426 17.9003 4.12463L11.4999 7.57102L5.09942 4.12463Z" fill="#FF4A4A"/>
</svg>
