<svg width="21" height="22" viewBox="0 0 21 22" fill="none" xmlns="http://www.w3.org/2000/svg">
<path d="M2.94792 0.953125C1.72541 0.953125 0.734375 1.94416 0.734375 3.16667C0.734375 4.38917 1.72541 5.38021 2.94792 5.38021C4.17042 5.38021 5.16146 4.38917 5.16146 3.16667C5.16146 1.94416 4.17042 0.953125 2.94792 0.953125Z" fill="#FF4A4A"/>
<path d="M0.864583 7.20312C0.792671 7.20312 0.734375 7.26142 0.734375 7.33333V20.875C0.734375 20.9469 0.792671 21.0052 0.864583 21.0052H5.03125C5.10316 21.0052 5.16146 20.9469 5.16146 20.875V7.33333C5.16146 7.26142 5.10316 7.20312 5.03125 7.20312H0.864583Z" fill="#FF4A4A"/>
<path d="M7.63542 7.20312C7.5635 7.20312 7.50521 7.26142 7.50521 7.33333V20.875C7.50521 20.9469 7.5635 21.0052 7.63542 21.0052H11.8021C11.874 21.0052 11.9323 20.9469 11.9323 20.875V13.5833C11.9323 13.0653 12.1381 12.5685 12.5043 12.2023C12.8706 11.836 13.3674 11.6302 13.8854 11.6302C14.4034 11.6302 14.9002 11.836 15.2665 12.2023C15.6328 12.5685 15.8385 13.0653 15.8385 13.5833V20.875C15.8385 20.9469 15.8968 21.0052 15.9687 21.0052H20.1354C20.2073 21.0052 20.2656 20.9469 20.2656 20.875V11.8961C20.2656 9.36823 18.0671 7.39062 15.5519 7.61927C14.7762 7.68979 14.0093 7.88261 13.2932 8.18953L11.9323 8.77277V7.33333C11.9323 7.26142 11.874 7.20312 11.8021 7.20312H7.63542Z" fill="#FF4A4A"/>
</svg>
