<svg width="200" height="200" viewBox="0 0 200 200" fill="none" xmlns="http://www.w3.org/2000/svg">
<path fill-rule="evenodd" clip-rule="evenodd" d="M64.5832 62.5C64.5832 42.9399 80.4398 27.0833 99.9998 27.0833C119.56 27.0833 135.417 42.9399 135.417 62.5C135.417 82.0601 119.56 97.9167 99.9998 97.9167C80.4398 97.9167 64.5832 82.0601 64.5832 62.5ZM99.9998 39.5833C87.3433 39.5833 77.0832 49.8435 77.0832 62.5C77.0832 75.1565 87.3433 85.4167 99.9998 85.4167C112.656 85.4167 122.917 75.1565 122.917 62.5C122.917 49.8435 112.656 39.5833 99.9998 39.5833Z" fill="black"/>
<path fill-rule="evenodd" clip-rule="evenodd" d="M66.6665 122.917C56.3112 122.917 47.9165 131.311 47.9165 141.667V151.569C47.9165 151.72 48.0258 151.848 48.1746 151.873C82.4975 157.476 117.502 157.476 151.825 151.873C151.974 151.848 152.083 151.72 152.083 151.569V141.667C152.083 131.311 143.689 122.917 133.333 122.917H130.493C130.273 122.917 130.055 122.951 129.846 123.02L122.633 125.375C107.926 130.177 92.0733 130.177 77.3664 125.375L70.1538 123.02C69.945 122.951 69.7267 122.917 69.5071 122.917H66.6665ZM35.4165 141.667C35.4165 124.408 49.4076 110.417 66.6665 110.417H69.5071C71.0445 110.417 72.5723 110.66 74.0338 111.137L81.2464 113.492C93.4321 117.471 106.568 117.471 118.753 113.492L125.966 111.137C127.427 110.66 128.955 110.417 130.493 110.417H133.333C150.592 110.417 164.583 124.408 164.583 141.667V151.569C164.583 157.846 160.034 163.198 153.839 164.209C118.182 170.031 81.8173 170.031 46.1604 164.209C39.9655 163.198 35.4165 157.846 35.4165 151.569V141.667Z" fill="black"/>
</svg>
